<svg width="24" height="24" viewBox="0 0 24 24" fill="none" xmlns="http://www.w3.org/2000/svg">
    <g clip-path="url(#clip0_201_2186)">
        <path fill-rule="evenodd" clip-rule="evenodd" d="M3.74368 14.1891L5.03798 15.4834L13.0226 5.27292C13.0087 4.55685 12.7128 3.71289 11.8228 2.82294C9.34664 0.346825 7.38043 2.62251 7.38043 2.62251L3.74368 14.1891ZM2.97966 15.5464C1.13105 17.7069 1.16551 19.7839 2.61035 21.2295C4.05519 22.6751 6.08985 22.6663 8.24407 20.8106L2.97966 15.5464ZM9.60063 20.0459L21.1687 16.4113C21.1687 16.4113 23.4918 14.4918 21.0156 12.0157C20.0942 11.0944 19.2222 10.8097 18.4903 10.8155L8.35518 18.8004L9.60063 20.0459ZM17.5188 9.67133C17.5342 9.03214 17.2672 8.26734 16.4194 7.41956C15.5443 6.54441 14.7575 6.28814 14.106 6.32248L6.10657 16.5519L7.28706 17.7324L17.5188 9.67133Z" fill="#414651"/>
    </g>
    <defs>
        <clipPath id="clip0_201_2186">
            <rect width="24" height="24" fill="white"/>
        </clipPath>
    </defs>
</svg>
