<svg width="24" height="24" viewBox="0 0 24 24" fill="none" xmlns="http://www.w3.org/2000/svg">
    <path d="M7.35156 12.6246C7.19276 14.9385 6.16046 17.0186 4.56738 18.5494L5.43262 19.4498C7.25878 17.6951 8.44349 15.2959 8.60449 12.6246H11.375V21.9781C6.35015 21.668 2.33126 17.6496 2.02148 12.6246H7.35156ZM15.3955 12.6246C15.5528 15.3348 16.725 17.7728 18.5381 19.5621C16.9319 20.952 14.8807 21.8391 12.625 21.9781V12.6246H15.3955ZM21.9785 12.6246C21.8351 14.9512 20.8975 17.0617 19.4316 18.6891C17.8378 17.1238 16.8043 14.9946 16.6484 12.6246H21.9785ZM19.4316 5.3092C20.8978 6.93661 21.8349 9.04786 21.9785 11.3746H16.6484C16.8045 9.00448 17.8375 6.87451 19.4316 5.3092ZM12.625 2.02112C14.8804 2.16016 16.932 3.0467 18.5381 4.43616C16.7246 6.22543 15.5529 8.66422 15.3955 11.3746H12.625V2.02112ZM11.375 11.3746H8.60449C8.44334 8.70361 7.25863 6.30407 5.43262 4.54944L4.56738 5.44983C6.16032 6.98049 7.19262 9.061 7.35156 11.3746H2.02148C2.33156 6.34997 6.35034 2.33119 11.375 2.02112V11.3746Z" fill="#414651"/>
</svg>
