<svg width="24" height="24" viewBox="0 0 24 24" fill="none" xmlns="http://www.w3.org/2000/svg">
    <path fill-rule="evenodd" clip-rule="evenodd" d="M2.625 20.75C2.625 21.095 2.905 21.375 3.25 21.375H20.75C21.095 21.375 21.375 21.095 21.375 20.75C21.375 20.2244 20.9913 19.4756 20.1981 18.7387C18.6606 17.31 15.5675 15.75 12 15.75C8.4325 15.75 5.33938 17.31 3.80187 18.7387C3.00875 19.4756 2.625 20.2244 2.625 20.75Z" fill="#414651"/>
    <path fill-rule="evenodd" clip-rule="evenodd" d="M12.9763 10.811L10.8169 14.5517C11.2044 14.5179 11.5994 14.4998 12 14.4998C12.0963 14.4998 12.1925 14.501 12.2881 14.5029L14.0588 11.436L12.9763 10.811Z" fill="#414651"/>
    <path fill-rule="evenodd" clip-rule="evenodd" d="M18.7294 4.11422C18.5137 5.66297 17.9062 9.27172 16.6712 11.5011L19.555 13.1661C19.8544 13.3386 20.2362 13.2361 20.4087 12.9373C22.135 9.94797 21.3575 6.19547 18.7294 4.11422ZM17.4256 4.63735C15.9994 5.51797 13.44 7.2536 12.3256 8.99235L15.5887 10.8761C16.5837 9.0711 17.1669 6.19235 17.4256 4.63735ZM11.2425 8.36672C12.62 6.18922 15.9206 4.08422 17.3262 3.25297C14.1375 1.7836 10.2912 2.96235 8.50124 6.06235C8.32874 6.3611 8.43124 6.7436 8.72999 6.9161L11.2425 8.36672Z" fill="#414651"/>
</svg>
