<svg width="24" height="24" viewBox="0 0 24 24" fill="none" xmlns="http://www.w3.org/2000/svg">
    <path fill-rule="evenodd" clip-rule="evenodd" d="M8.01334 3.29775C8.30607 2.51715 9.05231 2 9.886 2H17.25C18.4926 2 19.5 3.00736 19.5 4.25C19.5 5.49264 18.4926 6.5 17.25 6.5H12.3772C12.1539 6.5 11.9577 6.64799 11.8964 6.86264L11.3571 8.75H5.96875L8.01334 3.29775ZM1.5 14C1.5 11.7909 3.29086 10 5.5 10H18.5C20.7091 10 22.5 11.7909 22.5 14V14.75H1.5V14ZM1.5 16.25H22.5V17C22.5 19.2091 20.7091 21 18.5 21H5.5C3.29086 21 1.5 19.2091 1.5 17V16.25Z" fill="#414651"/>
</svg>
