<svg width="24" height="24" viewBox="0 0 24 24" fill="none" xmlns="http://www.w3.org/2000/svg">
    <path d="M16.4453 14.4066C16.1272 13.9524 15.4118 13.0527 14.3719 12.4338V8.79811L15.9286 5.70759C16.0149 5.53654 16.0194 5.33558 15.9415 5.16056L14.6822 2.33906C14.5386 2.01725 14.1611 1.8729 13.8396 2.01649C13.5178 2.16007 13.3734 2.53727 13.517 2.85908L14.6527 5.40409L14.4165 5.873C14.4369 5.98423 14.4481 6.09852 14.4481 6.21556C14.4481 7.26826 13.5898 8.11512 12.5485 8.11512C11.5147 8.11512 10.6491 7.27543 10.6491 6.21556C10.6491 6.11363 10.6573 6.01368 10.6729 5.91618L10.385 5.40684L11.6829 2.89158C11.8443 2.57847 11.7215 2.19364 11.4084 2.03205C11.0953 1.87061 10.7104 1.99345 10.5489 2.30656L9.09301 5.12806C8.99444 5.31925 8.99871 5.54722 9.1046 5.73445L10.7103 8.57579V11.9402C9.64324 12.1927 8.73931 12.6751 8.28734 12.9459C8.14055 13.0339 8.14193 13.2473 8.29009 13.333C8.46129 13.4319 8.69872 13.5621 8.99108 13.7052L7.98842 14.2359C7.71026 14.3831 7.53921 14.675 7.54714 14.9897C7.55492 15.3043 7.74001 15.5875 8.0252 15.7207L12.1974 17.67C12.3611 17.7466 12.5453 17.7689 12.7278 17.7283V21.1313C12.7278 21.5896 13.0992 21.961 13.5574 21.961C14.0155 21.961 14.3869 21.5896 14.3869 21.1313V14.9321C15.2344 14.9186 15.9183 14.8235 16.2999 14.757C16.4622 14.7287 16.5399 14.5417 16.4453 14.4066ZM12.7278 16.0866L10.2371 14.923L11.0388 14.4986C11.6266 14.6683 12.1701 14.7774 12.7278 14.8462V16.0866Z" fill="#414651"/>
    <path d="M11.1157 6.21576C11.1157 7.00693 11.7572 7.64841 12.5484 7.64841C13.3397 7.64841 13.9812 7.00693 13.9812 6.21576C13.9812 5.64798 13.651 5.15756 13.1722 4.92563C13.1761 4.89679 13.1789 4.86765 13.1789 4.83774C13.1789 4.6496 13.0975 4.48099 12.9686 4.36365C12.8545 4.25974 12.7034 4.1958 12.5369 4.1958C12.3668 4.1958 12.2124 4.26248 12.0975 4.37067C11.9731 4.4877 11.8951 4.65341 11.8951 4.83774C11.8951 4.87131 11.8985 4.90411 11.9034 4.93646C11.4363 5.17252 11.1157 5.65653 11.1157 6.21576Z" fill="#414651"/>
</svg>
