<svg width="24" height="24" viewBox="0 0 24 24" fill="none" xmlns="http://www.w3.org/2000/svg">
    <path fill-rule="evenodd" clip-rule="evenodd" d="M5.17205 14.3436C8.05823 13.9828 10.9451 15.3306 12.0337 15.9147C12.2776 16.0456 12.5883 15.9478 12.7022 15.6955L18.5025 2.85259C18.7369 2.33358 19.2536 2 19.8231 2C20.8806 2 21.5819 3.09609 21.1387 4.05623L14.2844 18.9067C14.0018 19.519 13.6412 20.0993 13.1024 20.5049C11.9676 21.3591 9.57806 22.6105 6.08638 21.6583C1.05709 20.2868 1.51512 14.8008 5.17205 14.3436ZM8.48681 16.9513C8.81482 16.7619 9.23421 16.8744 9.42354 17.2024L10.1645 18.486C10.3538 18.8141 10.2414 19.2334 9.91335 19.4228C9.58534 19.6121 9.16595 19.4997 8.97662 19.1717L8.2357 17.888C8.04637 17.56 8.1588 17.1406 8.48681 16.9513ZM5.27746 16.5646C5.60547 16.3752 6.02486 16.4877 6.21419 16.8157L6.95511 18.0993C7.14444 18.4273 7.03201 18.8467 6.704 19.0361C6.37599 19.2254 5.9566 19.113 5.76727 18.7849L5.02635 17.5013C4.83702 17.1733 4.94945 16.7539 5.27746 16.5646ZM19.3447 20.744C20.6072 20.744 21.6306 19.7206 21.6306 18.4581C21.6306 17.1957 20.6072 16.1723 19.3447 16.1723C18.0823 16.1723 17.0589 17.1957 17.0589 18.4581C17.0589 19.7206 18.0823 20.744 19.3447 20.744Z" fill="#414651"/>
</svg>
