<svg width="24" height="24" viewBox="0 0 24 24" fill="none" xmlns="http://www.w3.org/2000/svg">
    <path fill-rule="evenodd" clip-rule="evenodd" d="M3.01205 3C2.51567 3 2.11328 3.40239 2.11328 3.89877C2.11328 4.39515 2.51567 4.79754 3.01205 4.79754H7.05652V8.0178C4.50607 8.44569 2.56267 10.6638 2.56267 13.3359C2.56267 16.3141 4.97703 18.7285 7.95529 18.7285C8.64539 18.7285 9.30571 18.5985 9.91263 18.3619C9.5363 17.5404 9.32022 16.6302 9.30437 15.6713C8.90756 15.9012 8.44733 16.0322 7.95529 16.0322C6.46616 16.0322 5.25898 14.825 5.25898 13.3359C5.25898 11.8467 6.46616 10.6396 7.95529 10.6396C8.96478 10.6396 9.84544 11.1949 10.3075 12.0164C10.7962 11.2263 11.4436 10.5448 12.2051 10.0162C11.3933 8.97803 10.2096 8.24512 8.85407 8.01778V4.79754H15.1455V10.2893C12.595 10.7172 10.6516 12.9353 10.6516 15.6074C10.6516 18.5856 13.066 21 16.0442 21C19.0225 21 21.4369 18.5856 21.4369 15.6074C21.4369 12.9353 19.4935 10.7172 16.943 10.2893V4.79754H20.9875C21.4839 4.79754 21.8862 4.39515 21.8862 3.89877C21.8862 3.40239 21.4839 3 20.9875 3H16.0442H7.95529H3.01205ZM16.0442 12.9111C14.5551 12.9111 13.3479 14.1182 13.3479 15.6074C13.3479 17.0965 14.5551 18.3037 16.0442 18.3037C17.5334 18.3037 18.7406 17.0965 18.7406 15.6074C18.7406 14.1182 17.5334 12.9111 16.0442 12.9111Z" fill="#414651"/>
</svg>
