<svg width="24" height="24" viewBox="0 0 24 24" fill="none" xmlns="http://www.w3.org/2000/svg">
    <path fill-rule="evenodd" clip-rule="evenodd" d="M7.28248 16.0308C5.51291 14.969 3.11698 15.9495 2.66931 17.964L2.26913 19.7649C2.01423 20.9119 2.88616 22 4.06118 22H7.28248C9.06446 22 10.423 21.7177 11.28 21.4662C11.6287 21.3638 11.9382 21.1843 12.2055 20.9515C11.9927 20.504 11.8737 20.0033 11.8737 19.4748C11.8737 17.6186 13.3423 16.1054 15.1809 16.0337L17.8065 11.3793C17.755 11.3642 17.7046 11.3428 17.6561 11.3148L14.4891 9.48651L11.0094 15.4794C10.9897 15.5132 10.9714 15.5476 10.953 15.5819C10.938 15.6099 10.923 15.638 10.9073 15.6657C10.6861 16.057 9.67944 17.469 7.28248 16.0308ZM13.252 19.4532L13.2513 19.4544C13.2584 18.72 13.6486 18.0773 14.2317 17.7165L14.2312 17.7173C14.5469 17.5216 14.9193 17.4087 15.3181 17.4087H19.4507C20.5918 17.4087 21.5169 18.3338 21.5169 19.4749C21.5169 20.6161 20.5918 21.5412 19.4507 21.5412H15.3181C14.177 21.5412 13.2519 20.6161 13.2519 19.4749C13.2519 19.4677 13.2519 19.4604 13.252 19.4532ZM15.1808 8.29526L18.3448 10.1218C18.3892 10.1474 18.4296 10.1772 18.4659 10.2104L19.9117 7.64734C19.8746 7.6338 19.8381 7.61687 19.8028 7.59644L16.6451 5.77352L15.1808 8.29526ZM17.3368 4.58226L20.4915 6.40346C20.5228 6.42152 20.5521 6.44168 20.5794 6.46364L21.5377 4.76489C22.0341 3.88485 21.7265 2.7691 20.8492 2.2678L20.8046 2.2423C19.9282 1.74149 18.8119 2.04179 18.305 2.91472L17.3368 4.58226Z" fill="#414651"/>
</svg>
