<svg width="24" height="24" viewBox="0 0 24 24" fill="none" xmlns="http://www.w3.org/2000/svg">
    <path d="M8.58106 7.16115C8.72724 7.20663 8.87494 7.22967 9.02067 7.23348C9.29899 6.77892 9.81763 6.55538 10.3183 6.63366C10.4434 6.47909 10.5423 6.29888 10.605 6.09731C10.87 5.24465 10.3938 4.33843 9.54114 4.07338C8.68848 3.80818 7.78241 4.28441 7.51722 5.13707C7.25202 5.98974 7.7284 6.89596 8.58106 7.16115Z" fill="#414651"/>
    <path d="M16.4829 5.13764C16.2178 4.28498 15.3116 3.80875 14.4589 4.0738C13.6063 4.33885 13.13 5.24507 13.3951 6.09773C13.6603 6.95039 14.5664 7.42662 15.419 7.16157C16.2717 6.89637 16.7481 5.99031 16.4829 5.13764Z" fill="#414651"/>
    <path d="M21.9156 19.4669L20.5295 16.4278V13.5398L19.0672 8.87366C18.6392 7.5881 17.2049 6.93838 15.9557 7.46634L15.3349 7.72864C15.0273 7.8565 14.883 8.07211 14.883 8.07211L12.9443 8.66949L10.4804 7.2695C10.1285 7.06976 9.6814 7.1929 9.48151 7.54461C9.28162 7.89633 9.40476 8.34341 9.75663 8.5433L11.7586 9.68085L11.7635 9.68039C12.2237 9.64117 12.6477 9.849 12.9053 10.1934C13.0599 10.1833 12.9276 10.2003 15.3809 9.45166L14.93 9.71365L14.8087 9.784L13.9411 11.0219L13.1578 10.8739C13.2005 11.4806 12.8151 12.0211 12.2551 12.1944L14.1336 12.5494C14.4138 12.6023 14.7028 12.4877 14.8694 12.25L15.5759 11.242L16.4334 13.2708L14.3601 15.7955C14.263 15.9135 14.1966 16.0535 14.1667 16.2034L13.4725 19.6703C13.3714 20.1742 13.6981 20.6646 14.202 20.7655C14.7035 20.866 15.1958 20.5418 15.2971 20.0358L15.9458 16.7968L17.7899 14.5512L18.6685 14.4445V16.63C18.6685 16.7632 18.6972 16.8949 18.7525 17.0161L20.2225 20.2392C20.4355 20.7059 20.987 20.9132 21.4551 20.6995C21.9228 20.4864 22.1289 19.9345 21.9156 19.4669Z" fill="#414651"/>
    <path d="M8.52299 11.9852L11.9355 11.6941C12.3386 11.6596 12.6375 11.305 12.603 10.9018C12.5687 10.4989 12.2138 10.1999 11.811 10.2343L8.8866 10.4839L8.03242 8.83091L8.96458 9.91932L8.98365 9.9178L9.27418 9.23024C9.314 9.13609 9.33994 9.0395 9.35368 8.94291C8.9922 8.67665 8.8036 8.24726 8.8332 7.81712C8.69526 7.72968 8.63071 7.71916 8.04417 7.46632C6.79615 6.93882 5.3609 7.58701 4.93244 8.87364C4.081 11.504 3.47019 13.5399 3.47019 13.5399V16.428L2.08408 19.4671C1.87091 19.9346 2.07706 20.4865 2.54459 20.6997C3.01303 20.9134 3.56448 20.7059 3.77719 20.2393L5.24723 17.0162C5.30246 16.895 5.33115 16.7634 5.33115 16.6301V14.4446L6.20975 14.5513L8.05393 16.7969L8.70274 20.0359C8.80375 20.5405 9.29447 20.8663 9.79771 20.7656C10.3016 20.6646 10.6282 20.1743 10.5274 19.6705L9.83296 16.2035C9.80305 16.0537 9.73667 15.9137 9.63978 15.7956L7.56626 13.2709L7.89112 12.5025C7.60563 12.3926 7.38376 12.1468 7.31159 11.8381L6.79203 9.62193L7.80994 11.5918C7.94605 11.8551 8.22758 12.0105 8.52299 11.9852Z" fill="#414651"/>
</svg>
