<svg width="24" height="24" viewBox="0 0 24 24" fill="none" xmlns="http://www.w3.org/2000/svg">
    <path d="M15.7558 12.4354C16.95 10.7973 17.3574 8.44723 17.3574 6.46613C17.3574 3.02422 14.815 2 11.6787 2C8.54246 2 6 3.02422 6 6.46613C6 8.45336 6.36664 10.812 7.55777 12.4507L10.209 16.9714V19.1402H9.5141V22H13.8643V19.1402H13.1436V16.9885L15.7558 12.4354ZM13.4358 4.78582H14.6071V5.95719H13.4358V4.78582ZM13.4358 7.12855H14.6071V8.29992H13.4358V7.12855ZM13.4358 9.47133H14.6071V10.6427H13.4358V9.47133ZM11.093 4.78582H12.2644V5.95719H11.093V4.78582ZM11.093 7.12855H12.2644V8.29992H11.093V7.12855ZM11.093 9.47133H12.2644V10.6427H11.093V9.47133ZM9.92164 10.6427H8.75027V9.47133H9.92164V10.6427ZM9.92164 8.29996H8.75027V7.12859H9.92164V8.29996ZM9.92164 5.95719H8.75027V4.78582H9.92164V5.95719ZM12.5347 15.6959H10.8189L9.94746 14.2099C10.4602 14.3742 11.0351 14.4642 11.6787 14.4642C12.3133 14.4642 12.8822 14.3712 13.3916 14.2023L12.5347 15.6959Z" fill="#414651"/>
</svg>
