<svg width="24" height="24" viewBox="0 0 24 24" fill="none" xmlns="http://www.w3.org/2000/svg">
    <path d="M20.3586 10.9863C20.887 10.4563 21.1837 9.73848 21.1837 8.9901C21.1837 8.24172 20.887 7.52387 20.3586 6.99387L15.4588 2.0941C14.9288 1.56574 14.211 1.26904 13.4626 1.26904C12.7142 1.26904 11.9964 1.56574 11.4664 2.0941L6.16252 7.39759C5.79027 7.76733 5.52907 8.23398 5.40856 8.74463C5.28804 9.25527 5.31304 9.78946 5.48071 10.2866L6.57161 13.5593C6.58902 13.612 6.61857 13.6598 6.65787 13.6989L8.75449 15.7959C8.79371 15.8351 8.8415 15.8646 8.89408 15.8822L12.1661 16.9727C12.4559 17.0698 12.7595 17.1195 13.0651 17.1198C13.4351 17.1195 13.8013 17.0461 14.1428 16.9038C14.4843 16.7616 14.7943 16.5533 15.0551 16.2909L20.3586 10.9863Z" fill="#414651"/>
    <path d="M18.0386 14.8265C17.4015 14.8265 16.7787 15.0154 16.249 15.3693C15.7193 15.7233 15.3064 16.2264 15.0626 16.815C14.8188 17.4036 14.755 18.0512 14.8793 18.6761C15.0036 19.3009 15.3104 19.8749 15.7608 20.3254C16.2113 20.7759 16.7853 21.0826 17.4101 21.2069C18.035 21.3312 18.6827 21.2674 19.2713 21.0236C19.8598 20.7798 20.3629 20.367 20.7169 19.8372C21.0708 19.3075 21.2597 18.6847 21.2597 18.0477C21.2588 17.1936 20.9191 16.3749 20.3152 15.771C19.7113 15.1671 18.8926 14.8274 18.0386 14.8265ZM17.0006 19.8372C16.852 19.8372 16.7067 19.7931 16.5831 19.7105C16.4595 19.6279 16.3631 19.5106 16.3062 19.3732C16.2493 19.2359 16.2345 19.0848 16.2635 18.939C16.2925 18.7932 16.364 18.6592 16.4692 18.5541C16.5743 18.449 16.7082 18.3774 16.854 18.3484C16.9998 18.3194 17.1509 18.3343 17.2883 18.3912C17.4256 18.4481 17.543 18.5444 17.6256 18.668C17.7082 18.7916 17.7522 18.9369 17.7522 19.0856C17.7522 19.2849 17.673 19.4761 17.5321 19.6171C17.3911 19.758 17.2 19.8372 17.0006 19.8372ZM17.0006 17.7613C16.852 17.7613 16.7067 17.7172 16.5831 17.6347C16.4595 17.5521 16.3631 17.4347 16.3062 17.2973C16.2493 17.16 16.2345 17.0089 16.2635 16.8631C16.2925 16.7173 16.364 16.5834 16.4692 16.4783C16.5743 16.3731 16.7082 16.3016 16.854 16.2726C16.9998 16.2436 17.1509 16.2584 17.2883 16.3153C17.4256 16.3722 17.543 16.4685 17.6256 16.5921C17.7082 16.7157 17.7522 16.8611 17.7522 17.0097C17.7522 17.2091 17.673 17.4002 17.5321 17.5412C17.3911 17.6821 17.2 17.7613 17.0006 17.7613ZM19.0765 19.8372C18.9278 19.8372 18.7825 19.7931 18.6589 19.7105C18.5353 19.6279 18.439 19.5106 18.3821 19.3732C18.3252 19.2359 18.3103 19.0848 18.3393 18.939C18.3683 18.7932 18.4399 18.6592 18.545 18.5541C18.6501 18.449 18.7841 18.3774 18.9299 18.3484C19.0757 18.3194 19.2268 18.3343 19.3641 18.3912C19.5015 18.4481 19.6188 18.5444 19.7014 18.668C19.784 18.7916 19.8281 18.9369 19.8281 19.0856C19.8281 19.1843 19.8086 19.2821 19.7709 19.3733C19.7331 19.4645 19.6777 19.5474 19.6078 19.6172C19.538 19.687 19.4551 19.7423 19.3639 19.7801C19.2726 19.8178 19.1752 19.8372 19.0765 19.8372ZM19.0765 17.7613C18.9278 17.7613 18.7825 17.7172 18.6589 17.6347C18.5353 17.5521 18.439 17.4347 18.3821 17.2973C18.3252 17.16 18.3103 17.0089 18.3393 16.8631C18.3683 16.7173 18.4399 16.5834 18.545 16.4783C18.6501 16.3731 18.7841 16.3016 18.9299 16.2726C19.0757 16.2436 19.2268 16.2584 19.3641 16.3153C19.5015 16.3722 19.6188 16.4685 19.7014 16.5921C19.784 16.7157 19.8281 16.8611 19.8281 17.0097C19.8281 17.1084 19.8086 17.2062 19.7709 17.2974C19.7331 17.3886 19.6777 17.4715 19.6078 17.5413C19.538 17.6111 19.4551 17.6665 19.3639 17.7042C19.2726 17.742 19.1752 17.7614 19.0765 17.7613Z" fill="#414651"/>
    <path d="M8.24804 16.3013L6.15177 14.2036C6.06682 14.1155 5.9978 14.0133 5.94776 13.9016L2.32931 17.5211C2.18652 17.5005 2.0409 17.5137 1.90415 17.5597C1.7674 17.6056 1.64333 17.683 1.54191 17.7856C1.3725 17.9551 1.27734 18.185 1.27734 18.4246C1.27734 18.6643 1.3725 18.8941 1.54191 19.0637L3.39051 20.9123C3.47427 20.9965 3.57389 21.0632 3.68361 21.1087C3.79333 21.1541 3.91097 21.1774 4.02973 21.1771C4.15179 21.1768 4.27254 21.152 4.38481 21.1041C4.49707 21.0562 4.59857 20.9862 4.68327 20.8983C4.78305 20.7978 4.85774 20.6752 4.90127 20.5405C4.9448 20.4057 4.95595 20.2626 4.93381 20.1227L8.55011 16.5057C8.43853 16.4553 8.33637 16.3861 8.24804 16.3013Z" fill="#414651"/>
</svg>
