<svg width="24" height="24" viewBox="0 0 24 24" fill="none" xmlns="http://www.w3.org/2000/svg">
    <path fill-rule="evenodd" clip-rule="evenodd" d="M22 12C22 17.5228 17.5228 22 12 22C6.47715 22 2 17.5228 2 12C2 6.47715 6.47715 2 12 2C17.5228 2 22 6.47715 22 12ZM15.8095 12.9524C15.8095 16.1083 13.4643 18.6667 10.5714 18.6667C7.67851 18.6667 5.33333 16.1083 5.33333 12.9524C5.33333 9.79647 7.67851 7.2381 10.5714 7.2381C13.4643 7.2381 15.8095 9.79647 15.8095 12.9524ZM9.85714 11.0476C9.85714 10.6531 10.1769 10.3333 10.5714 10.3333C10.9659 10.3333 11.2857 10.6531 11.2857 11.0476C11.2857 11.4421 10.9659 11.7619 10.5714 11.7619C10.1769 11.7619 9.85714 11.4421 9.85714 11.0476ZM12.7143 11.0476C12.7143 11.5485 12.5424 12.0093 12.2544 12.3742C12.8267 12.8546 13.1905 13.5753 13.1905 14.381C13.1905 15.8274 12.0179 17 10.5714 17C9.12497 17 7.95238 15.8274 7.95238 14.381C7.95238 13.5753 8.31616 12.8546 8.88842 12.3742C8.60044 12.0093 8.42857 11.5485 8.42857 11.0476C8.42857 9.86415 9.38796 8.90476 10.5714 8.90476C11.7549 8.90476 12.7143 9.86415 12.7143 11.0476ZM9.38095 14.381C9.38095 13.7235 9.91395 13.1905 10.5714 13.1905C11.2289 13.1905 11.7619 13.7235 11.7619 14.381C11.7619 15.0384 11.2289 15.5714 10.5714 15.5714C9.91395 15.5714 9.38095 15.0384 9.38095 14.381Z" fill="#414651"/>
</svg>
