<svg width="24" height="24" viewBox="0 0 24 24" fill="none" xmlns="http://www.w3.org/2000/svg">
    <path d="M15.1326 2.23137C16.2678 2.06139 17.3419 2 18.2983 2C18.8053 2 19.3121 2.01786 19.8045 2.05302C20.9436 2.13438 21.864 3.05473 21.9454 4.19385C22.0321 5.40808 22.0434 7.05034 21.7708 8.8695L15.1326 2.23137ZM2.22931 15.1271C1.95675 16.9463 1.96802 18.5886 2.05475 19.8028C2.13611 20.9419 3.05658 21.8623 4.19558 21.9436C4.6879 21.9788 5.19462 21.9967 5.70178 21.9967C5.70201 21.9967 5.70201 21.9967 5.70223 21.9967C6.65852 21.9967 7.73257 21.9353 8.86755 21.7654L2.22931 15.1271ZM21.5234 10.2007C20.9734 12.6702 19.8523 15.341 17.6861 17.6578C17.6775 17.667 17.6687 17.6758 17.6596 17.6844C15.3531 19.8409 12.6873 20.9654 10.1987 21.5181L2.47675 13.796C3.02667 11.3264 4.14781 8.65565 6.31398 6.33881C6.32257 6.32966 6.33139 6.32084 6.34054 6.31225C8.64701 4.15579 11.3129 3.0313 13.8014 2.47859L21.5234 10.2007ZM16.1395 10.2442L15.3415 9.4462L15.9623 8.82542C16.1803 8.60744 16.1803 8.25407 15.9623 8.03621C15.7443 7.81834 15.3911 7.81834 15.1731 8.03621L14.5523 8.65699L13.7543 7.85897C13.5364 7.64121 13.1831 7.6411 12.9651 7.85897C12.7471 8.07695 12.7471 8.43031 12.9651 8.64818L13.7631 9.4462L12.8509 10.3584L12.0528 9.56038C11.835 9.34263 11.4817 9.34251 11.2636 9.56038C11.0457 9.77836 11.0457 10.1317 11.2636 10.3496L12.0617 11.1476L11.1495 12.0598L10.3514 11.2618C10.1335 11.0439 9.7802 11.0439 9.56222 11.2618C9.34425 11.4798 9.34425 11.8331 9.56222 12.051L10.3603 12.849L9.44805 13.7612L8.65002 12.9632C8.43204 12.7453 8.07879 12.7453 7.86081 12.9632C7.64283 13.1812 7.64283 13.5346 7.86081 13.7524L8.65884 14.5504L8.03805 15.1712C7.82007 15.3892 7.82007 15.7426 8.03805 15.9604C8.14709 16.0694 8.28985 16.1238 8.43271 16.1238C8.57557 16.1238 8.71833 16.0694 8.82737 15.9604L9.44816 15.3397L10.2462 16.1377C10.3552 16.2466 10.498 16.3011 10.6408 16.3011C10.7837 16.3011 10.9265 16.2466 11.0355 16.1377C11.2535 15.9197 11.2535 15.5663 11.0355 15.3485L10.2375 14.5504L11.1497 13.6382L11.9477 14.4363C12.0568 14.5452 12.1995 14.5997 12.3424 14.5997C12.4852 14.5997 12.628 14.5452 12.737 14.4363C12.955 14.2183 12.955 13.8649 12.737 13.6471L11.939 12.849L12.8512 11.9368L13.6492 12.7349C13.7583 12.8438 13.901 12.8983 14.0439 12.8983C14.1867 12.8983 14.3295 12.8438 14.4386 12.7349C14.6565 12.5169 14.6565 12.1635 14.4386 11.9456L13.6405 11.1476L14.5527 10.2354L15.3508 11.0334C15.4598 11.1424 15.6026 11.1968 15.7454 11.1968C15.8882 11.1968 16.031 11.1424 16.1401 11.0334C16.3574 10.8156 16.3574 10.4622 16.1395 10.2442Z" fill="#414651"/>
</svg>
