<svg width="24" height="24" viewBox="0 0 24 24" fill="none" xmlns="http://www.w3.org/2000/svg">
    <path fill-rule="evenodd" clip-rule="evenodd" d="M9.39813 2.34184C7.01113 2.9833 4.97695 4.4861 3.64932 6.49652L5.62148 7.0307L9.39813 4.2868V2.34184ZM2.93053 7.78188C2.33342 9.06355 2 10.4928 2 12C2 13.0817 2.17176 14.1234 2.4895 15.0991L4.74628 15.3363L6.6323 12.7911L5.20486 8.3979L2.93053 7.78188ZM4.99472 19.1363C4.24383 18.3991 3.60878 17.5443 3.11938 16.6017L4.48653 16.7454L4.99472 19.1363ZM6.74743 20.5111C8.2739 21.4551 10.0733 22 12 22C12.5609 22 13.1111 21.9538 13.6469 21.865C13.4687 21.6967 13.3863 21.4447 13.4389 21.1974L14.4873 16.2649L12.4493 13.6348H7.78513L5.84295 16.2558L6.74743 20.5111ZM20.5542 17.1821C19.4082 19.0698 17.655 20.548 15.5656 21.3456L14.9441 20.9868L15.8457 16.7454L20.158 16.2922L20.5542 17.1821ZM21.3698 15.5016C21.7772 14.4118 22 13.2319 22 12C22 11.1786 21.901 10.3804 21.7142 9.61651L18.0205 7.5851L15.02 8.39789L13.5956 12.7818L15.5758 15.3373L20.5248 14.8172C20.8326 14.7848 21.1261 14.9543 21.252 15.237L21.3698 15.5016ZM19.4496 5.32881C20.0533 6.00241 20.5668 6.75834 20.9715 7.5777L19.0021 6.49462L19.4496 5.32881ZM18.3303 4.25837C16.6062 2.84689 14.402 2 12 2C11.6031 2 11.2116 2.02313 10.8267 2.0681V4.2868L14.6033 7.03069L17.5752 6.22567L18.3303 4.25837ZM6.60442 8.08236L10.1124 5.53365L13.6204 8.08236L12.2805 12.2063H7.94436L6.60442 8.08236Z" fill="#414651"/>
</svg>
