<svg width="24" height="24" viewBox="0 0 24 24" fill="none" xmlns="http://www.w3.org/2000/svg">
    <path d="M11.9999 22C17.5228 22 21.9997 17.5228 21.9997 11.9998C21.9997 6.47725 17.5228 2 11.9999 2C6.47692 2 2 6.47725 2 11.9998C2 17.5228 6.47688 22 11.9999 22ZM13.8227 6.98072C14.3263 6.98072 14.7344 7.38885 14.7344 7.89236C14.7344 8.39587 14.3263 8.80401 13.8227 8.80401C13.3192 8.80401 12.9111 8.39587 12.9111 7.89236C12.9115 7.38849 13.3192 6.98072 13.8227 6.98072ZM12.9115 10.6819C13.415 10.6819 13.8232 11.0901 13.8232 11.5936C13.8232 12.0971 13.415 12.5052 12.9115 12.5052C12.408 12.5048 11.9999 12.0971 11.9999 11.5936C11.9999 11.0901 12.408 10.6819 12.9115 10.6819Z" fill="#414651"/>
</svg>
