<svg width="24" height="24" viewBox="0 0 24 24" fill="none" xmlns="http://www.w3.org/2000/svg">
    <path fill-rule="evenodd" clip-rule="evenodd" d="M10.6666 4.73022C11.3925 4.43987 11.7455 3.61607 11.4552 2.8902C11.1648 2.16433 10.341 1.81127 9.61515 2.10162C7.65283 2.88655 6.36609 4.78711 6.36609 6.90059V16.5789C7.34916 16.5882 8.33199 16.8669 9.19718 17.4189V17.4188C9.24936 17.4521 9.30112 17.4864 9.35243 17.5217C11.238 16.188 13.7622 16.188 15.6478 17.5217C15.6991 17.4864 15.7509 17.4521 15.803 17.4189V17.4189C16.6682 16.8669 17.6511 16.5882 18.6341 16.5789V6.90059C18.6341 5.94475 19.2161 5.08521 20.1035 4.73022C20.8294 4.43987 21.1825 3.61607 20.8921 2.8902C20.6018 2.16433 19.778 1.81127 19.0521 2.10162C17.0898 2.88655 15.803 4.78711 15.803 6.90059V6.90095H9.19718V6.90059C9.19718 5.94475 9.77912 5.08521 10.6666 4.73022ZM15.803 14.2146H9.19718V12.799H15.803V14.2146ZM15.803 10.4398H9.19718V9.02426H15.803V10.4398ZM11.7766 21.0091C12.2054 20.6875 12.7949 20.6875 13.2236 21.0091L13.2765 21.0487C14.6805 22.1018 16.611 22.1018 18.0151 21.0487C18.4342 20.7344 19.0154 20.7533 19.4131 21.0943L20.0722 21.6592C20.6657 22.168 21.5594 22.0992 22.0682 21.5057C22.5769 20.9121 22.5082 20.0184 21.9146 19.5097L21.2556 18.9448C19.8503 17.7403 17.7971 17.6734 16.3164 18.7839C15.919 19.0819 15.3726 19.0819 14.9751 18.7839L14.9223 18.7442C13.4869 17.6677 11.5133 17.6677 10.078 18.7442L10.0251 18.7839C9.62771 19.0819 9.08126 19.0819 8.68385 18.7839C7.20321 17.6734 5.14995 17.7403 3.74471 18.9448L3.08565 19.5097C2.49208 20.0184 2.42334 20.9121 2.93212 21.5057C3.44089 22.0992 4.33453 22.168 4.9281 21.6592L5.58716 21.0943C5.98492 20.7533 6.5661 20.7344 6.9852 21.0487C8.38922 22.1018 10.3197 22.1018 11.7238 21.0487L11.7766 21.0091Z" fill="#414651"/>
</svg>
