<svg width="24" height="24" viewBox="0 0 24 24" fill="none" xmlns="http://www.w3.org/2000/svg">
    <path fill-rule="evenodd" clip-rule="evenodd" d="M15.7711 16.357C16.6745 15.6818 17.4834 14.7773 18.1367 13.6457C20.5309 9.49876 19.2202 5.06663 15.6575 3.0097C12.0948 0.952778 7.6292 2.04995 5.23494 6.19693C4.58164 7.32847 4.2028 8.48124 4.06964 9.60119L9.7904 12.9041L15.7711 16.357ZM14.3982 17.1771L9.09207 14.1136L4.04589 11.2002C4.26005 13.545 5.57588 15.6093 7.69536 16.833C9.81484 18.0567 12.2605 18.1641 14.3982 17.1771ZM6.02295 17.3953L4.0223 20.1863C3.86198 20.4099 3.92959 20.7231 4.16791 20.8607L6.03296 21.9375C6.27476 22.0771 6.58421 21.9739 6.69387 21.7172L8.04183 18.5611C7.68773 18.4127 7.33853 18.2398 6.99608 18.0421C6.65334 17.8442 6.32872 17.628 6.02295 17.3953ZM18.7372 21.8671C20.0228 21.8671 21.065 20.825 21.065 19.5394C21.065 18.2538 20.0228 17.2116 18.7372 17.2116C17.4516 17.2116 16.4095 18.2538 16.4095 19.5394C16.4095 20.825 17.4516 21.8671 18.7372 21.8671Z" fill="#414651"/>
</svg>
