<svg width="24" height="24" viewBox="0 0 24 24" fill="none" xmlns="http://www.w3.org/2000/svg">
    <path fill-rule="evenodd" clip-rule="evenodd" d="M22 12.3421C19.5188 9.64366 15.9585 7.95252 12.0031 7.95252C11.8242 7.95252 11.6461 7.95598 11.4689 7.96283C11.5616 9.09629 11.8763 10.228 12.4308 11.2946C14.1138 11.3638 15.6935 11.8395 17.0726 12.6263C18.6842 13.5459 20.0224 14.8911 20.9335 16.5092C21.5709 15.25 21.9497 13.8377 22 12.3421ZM20.0537 17.9359C18.2319 20.4012 15.3041 22 12.0029 22C6.47844 22 2 17.5228 2 12C2 6.47715 6.47844 2 12.0029 2C12.0028 2 12.003 2 12.0029 2C11.8149 2 11.6285 2.00518 11.4431 2.01541C11.4233 2.049 11.4036 2.08269 11.3841 2.11648C10.4769 3.6896 10.0018 5.48177 10.0108 7.29813C10.0188 8.88553 10.3966 10.491 11.1781 11.9826C10.5313 12.996 9.70835 13.8343 8.77283 14.4813C8.67829 14.3313 8.58624 14.1789 8.49677 14.0239C6.5185 10.5985 6.20374 6.66921 7.3019 3.17105C6.66485 3.51078 6.0689 3.9174 5.52342 4.38153C4.85722 7.80693 5.37693 11.4789 7.25924 14.7382C7.34868 14.8931 7.4405 15.0458 7.5346 15.1963C6.07959 15.8858 4.45071 16.1708 2.83357 16.0022C3.05921 16.5181 3.32715 17.0114 3.63299 17.4775C5.48991 17.4975 7.32398 17.0115 8.92607 16.076C10.2972 15.2755 11.499 14.1456 12.4004 12.7232C13.6018 12.7764 14.7395 13.0698 15.7678 13.5563C15.6851 13.7132 15.599 13.8692 15.5095 14.0242C15.3047 14.3787 15.0865 14.7204 14.8558 15.0489C12.8565 17.8968 9.91555 19.7689 6.70683 20.4848C7.31101 20.8625 7.95842 21.1775 8.63996 21.4207C11.5454 20.4214 14.1572 18.5309 16.0255 15.8696C16.2803 15.5067 16.5212 15.1295 16.747 14.7385C16.8365 14.5835 16.9229 14.4277 17.0062 14.2709C18.3303 15.1855 19.3912 16.4524 20.0537 17.9359ZM13.1202 2.06168C17.522 2.55077 21.0618 5.89541 21.8443 10.2008C19.2099 7.91052 15.7685 6.52395 12.0031 6.52395C11.8243 6.52395 11.6461 6.52708 11.4687 6.5333C11.5744 5.23235 11.9678 3.96466 12.6221 2.82996C12.7741 2.56629 12.9403 2.30979 13.1202 2.06168Z" fill="#414651"/>
</svg>
